M48
; DRILL file {KiCad (6.0.4-0)} date Wednesday, 01 June 2022 at 22:20:42
; FORMAT={-:-/ absolute / metric / decimal}
; #@! TF.CreationDate,2022-06-01T22:20:42+01:00
; #@! TF.GenerationSoftware,Kicad,Pcbnew,(6.0.4-0)
; #@! TF.FileFunction,Plated,1,2,PTH
FMAT,2
METRIC
; #@! TA.AperFunction,Plated,PTH,ViaDrill
T1C0.381
; #@! TA.AperFunction,Plated,PTH,ComponentDrill
T2C0.800
; #@! TA.AperFunction,Plated,PTH,ComponentDrill
T3C0.900
; #@! TA.AperFunction,Plated,PTH,ComponentDrill
T4C0.991
; #@! TA.AperFunction,Plated,PTH,ComponentDrill
T5C1.170
; #@! TA.AperFunction,Plated,PTH,ComponentDrill
T6C1.500
%
G90
G05
T1
X73.251Y-130.302
X75.057Y-135.128
X76.454Y-102.616
X84.074Y-105.156
X86.614Y-106.172
X87.376Y-136.017
X93.091Y-120.904
X99.441Y-131.572
X100.838Y-90.424
X101.739Y-86.475
X109.982Y-108.204
X112.977Y-79.756
X112.977Y-85.344
X115.062Y-107.696
X116.078Y-74.168
T2
X45.212Y-69.596
X45.212Y-77.216
X50.78Y-69.596
X50.78Y-77.216
X56.505Y-69.596
X56.505Y-77.216
X62.23Y-69.596
X62.23Y-77.216
X67.945Y-69.596
X67.945Y-77.216
X69.814Y-146.566
X69.814Y-154.186
X76.814Y-146.566
X76.814Y-154.186
X76.962Y-133.35
X76.962Y-140.97
X80.518Y-133.35
X80.518Y-140.97
X83.814Y-146.566
X83.814Y-154.186
X84.074Y-133.35
X84.074Y-140.97
X90.814Y-146.566
X90.814Y-154.186
X92.202Y-92.202
X92.202Y-99.822
X92.202Y-106.68
X92.202Y-114.3
X95.758Y-92.202
X95.758Y-99.822
X95.758Y-106.68
X95.758Y-114.3
X99.314Y-92.202
X99.314Y-99.822
X99.314Y-106.68
X99.314Y-114.3
X100.814Y-146.566
X100.814Y-154.186
X107.442Y-132.842
X107.442Y-140.462
X107.814Y-146.566
X107.814Y-154.186
X110.998Y-132.842
X110.998Y-140.462
X114.554Y-132.842
X114.554Y-140.462
X114.814Y-146.566
X114.814Y-154.186
X121.814Y-146.566
X121.814Y-154.186
T3
X43.78Y-63.5
X46.32Y-63.5
X49.505Y-63.5
X52.045Y-63.5
X53.114Y-147.616
X55.23Y-63.5
X55.614Y-147.616
X57.77Y-63.5
X58.114Y-147.616
X60.955Y-63.5
X63.495Y-63.5
X66.68Y-63.492
X69.22Y-63.492
X69.814Y-160.186
X69.814Y-162.686
X69.814Y-165.186
X76.814Y-160.186
X76.814Y-162.686
X76.814Y-165.186
X83.814Y-160.186
X83.814Y-162.686
X83.814Y-165.186
X90.814Y-160.186
X90.814Y-162.686
X90.814Y-165.186
X100.814Y-160.186
X100.814Y-162.686
X100.814Y-165.186
X107.814Y-160.186
X107.814Y-162.686
X107.814Y-165.186
X114.814Y-160.186
X114.814Y-162.686
X114.814Y-165.186
X121.814Y-160.186
X121.814Y-162.686
X121.814Y-165.186
T4
X76.505Y-83.396
X76.505Y-85.936
X76.505Y-88.476
X76.505Y-91.016
X76.505Y-93.556
X76.505Y-96.096
X76.505Y-98.636
X76.505Y-113.396
X76.505Y-115.936
X76.505Y-118.476
X76.505Y-121.016
X76.505Y-123.556
X76.505Y-126.096
X76.505Y-128.636
X84.125Y-83.396
X84.125Y-85.936
X84.125Y-88.476
X84.125Y-91.016
X84.125Y-93.556
X84.125Y-96.096
X84.125Y-98.636
X84.125Y-113.396
X84.125Y-115.936
X84.125Y-118.476
X84.125Y-121.016
X84.125Y-123.556
X84.125Y-126.096
X84.125Y-128.636
X92.964Y-60.452
X92.964Y-62.992
X92.964Y-65.532
X92.964Y-68.072
X92.964Y-70.612
X92.964Y-73.152
X92.964Y-75.692
X100.584Y-60.452
X100.584Y-62.992
X100.584Y-65.532
X100.584Y-68.072
X100.584Y-70.612
X100.584Y-73.152
X100.584Y-75.692
X107.498Y-83.396
X107.498Y-85.936
X107.498Y-88.476
X107.498Y-91.016
X107.498Y-93.556
X107.498Y-96.096
X107.498Y-98.636
X107.498Y-113.396
X107.498Y-115.936
X107.498Y-118.476
X107.498Y-121.016
X107.498Y-123.556
X107.498Y-126.096
X107.498Y-128.636
X115.118Y-83.396
X115.118Y-85.936
X115.118Y-88.476
X115.118Y-91.016
X115.118Y-93.556
X115.118Y-96.096
X115.118Y-98.636
X115.118Y-113.396
X115.118Y-115.936
X115.118Y-118.476
X115.118Y-121.016
X115.118Y-123.556
X115.118Y-126.096
X115.118Y-128.636
T5
X53.114Y-120.24
T6
X53.114Y-140.24
T0
M30
