%TF.GenerationSoftware,KiCad,Pcbnew,(6.0.4-0)*%
%TF.CreationDate,2022-06-01T22:19:22+01:00*%
%TF.ProjectId,4-bitAdder,342d6269-7441-4646-9465-722e6b696361,v1.0*%
%TF.SameCoordinates,Original*%
%TF.FileFunction,Soldermask,Bot*%
%TF.FilePolarity,Negative*%
%FSLAX46Y46*%
G04 Gerber Fmt 4.6, Leading zero omitted, Abs format (unit mm)*
G04 Created by KiCad (PCBNEW (6.0.4-0)) date 2022-06-01 22:19:22*
%MOMM*%
%LPD*%
G01*
G04 APERTURE LIST*
G04 Aperture macros list*
%AMRoundRect*
0 Rectangle with rounded corners*
0 $1 Rounding radius*
0 $2 $3 $4 $5 $6 $7 $8 $9 X,Y pos of 4 corners*
0 Add a 4 corners polygon primitive as box body*
4,1,4,$2,$3,$4,$5,$6,$7,$8,$9,$2,$3,0*
0 Add four circle primitives for the rounded corners*
1,1,$1+$1,$2,$3*
1,1,$1+$1,$4,$5*
1,1,$1+$1,$6,$7*
1,1,$1+$1,$8,$9*
0 Add four rect primitives between the rounded corners*
20,1,$1+$1,$2,$3,$4,$5,0*
20,1,$1+$1,$4,$5,$6,$7,0*
20,1,$1+$1,$6,$7,$8,$9,0*
20,1,$1+$1,$8,$9,$2,$3,0*%
G04 Aperture macros list end*
%ADD10C,1.701800*%
%ADD11C,1.701600*%
%ADD12O,1.701600X1.701600*%
%ADD13RoundRect,0.050800X-0.900000X-0.900000X0.900000X-0.900000X0.900000X0.900000X-0.900000X0.900000X0*%
%ADD14C,1.901600*%
%ADD15RoundRect,0.050800X-1.085000X1.085000X-1.085000X-1.085000X1.085000X-1.085000X1.085000X1.085000X0*%
%ADD16C,2.601600*%
%ADD17RoundRect,0.050800X0.950000X0.950000X-0.950000X0.950000X-0.950000X-0.950000X0.950000X-0.950000X0*%
%ADD18C,2.001600*%
%ADD19RoundRect,0.050800X-0.950000X0.950000X-0.950000X-0.950000X0.950000X-0.950000X0.950000X0.950000X0*%
G04 APERTURE END LIST*
D10*
X107497850Y-83396000D03*
X107497850Y-85936000D03*
X107497850Y-88476000D03*
X107497850Y-91016000D03*
X107497850Y-93556000D03*
X107497850Y-96096000D03*
X107497850Y-98636000D03*
X115117850Y-98636000D03*
X115117850Y-96096000D03*
X115117850Y-93556000D03*
X115117850Y-91016000D03*
X115117850Y-88476000D03*
X115117850Y-85936000D03*
X115117850Y-83396000D03*
D11*
X50780000Y-77216000D03*
D12*
X50780000Y-69596000D03*
D10*
X107497850Y-113396000D03*
X107497850Y-115936000D03*
X107497850Y-118476000D03*
X107497850Y-121016000D03*
X107497850Y-123556000D03*
X107497850Y-126096000D03*
X107497850Y-128636000D03*
X115117850Y-128636000D03*
X115117850Y-126096000D03*
X115117850Y-123556000D03*
X115117850Y-121016000D03*
X115117850Y-118476000D03*
X115117850Y-115936000D03*
X115117850Y-113396000D03*
D13*
X49505000Y-63500000D03*
D14*
X52045000Y-63500000D03*
D13*
X55230000Y-63500000D03*
D14*
X57770000Y-63500000D03*
D11*
X62230000Y-77216000D03*
D12*
X62230000Y-69596000D03*
D15*
X53114000Y-120240300D03*
D16*
X53114000Y-140240300D03*
D17*
X58114000Y-147616000D03*
D18*
X55614000Y-147616000D03*
X53114000Y-147616000D03*
D11*
X107814000Y-154186000D03*
D12*
X107814000Y-146566000D03*
D11*
X76962000Y-133350000D03*
D12*
X76962000Y-140970000D03*
D19*
X76814000Y-160186000D03*
D18*
X76814000Y-162686000D03*
X76814000Y-165186000D03*
D11*
X99314000Y-99822000D03*
D12*
X99314000Y-92202000D03*
D11*
X84074000Y-133350000D03*
D12*
X84074000Y-140970000D03*
D11*
X90814000Y-154186000D03*
D12*
X90814000Y-146566000D03*
D11*
X92202000Y-106680000D03*
D12*
X92202000Y-114300000D03*
D19*
X90814000Y-160186000D03*
D18*
X90814000Y-162686000D03*
X90814000Y-165186000D03*
D11*
X110998000Y-132842000D03*
D12*
X110998000Y-140462000D03*
D11*
X56505000Y-77216000D03*
D12*
X56505000Y-69596000D03*
D11*
X95758000Y-99822000D03*
D12*
X95758000Y-92202000D03*
D11*
X92202000Y-99822000D03*
D12*
X92202000Y-92202000D03*
D10*
X76504800Y-83396000D03*
X76504800Y-85936000D03*
X76504800Y-88476000D03*
X76504800Y-91016000D03*
X76504800Y-93556000D03*
X76504800Y-96096000D03*
X76504800Y-98636000D03*
X84124800Y-98636000D03*
X84124800Y-96096000D03*
X84124800Y-93556000D03*
X84124800Y-91016000D03*
X84124800Y-88476000D03*
X84124800Y-85936000D03*
X84124800Y-83396000D03*
X92964000Y-60452000D03*
X92964000Y-62992000D03*
X92964000Y-65532000D03*
X92964000Y-68072000D03*
X92964000Y-70612000D03*
X92964000Y-73152000D03*
X92964000Y-75692000D03*
X100584000Y-75692000D03*
X100584000Y-73152000D03*
X100584000Y-70612000D03*
X100584000Y-68072000D03*
X100584000Y-65532000D03*
X100584000Y-62992000D03*
X100584000Y-60452000D03*
D13*
X66680000Y-63492000D03*
D14*
X69220000Y-63492000D03*
D13*
X43780000Y-63500000D03*
D14*
X46320000Y-63500000D03*
D11*
X76814000Y-154186000D03*
D12*
X76814000Y-146566000D03*
D19*
X114814000Y-160186000D03*
D18*
X114814000Y-162686000D03*
X114814000Y-165186000D03*
D11*
X45212000Y-77216000D03*
D12*
X45212000Y-69596000D03*
D11*
X107442000Y-132842000D03*
D12*
X107442000Y-140462000D03*
D11*
X80518000Y-133350000D03*
D12*
X80518000Y-140970000D03*
D11*
X114554000Y-132842000D03*
D12*
X114554000Y-140462000D03*
D11*
X114814000Y-154186000D03*
D12*
X114814000Y-146566000D03*
D19*
X83814000Y-160186000D03*
D18*
X83814000Y-162686000D03*
X83814000Y-165186000D03*
D11*
X100814000Y-154186000D03*
D12*
X100814000Y-146566000D03*
D19*
X107814000Y-160186000D03*
D18*
X107814000Y-162686000D03*
X107814000Y-165186000D03*
D11*
X95758000Y-106680000D03*
D12*
X95758000Y-114300000D03*
D11*
X99314000Y-106680000D03*
D12*
X99314000Y-114300000D03*
D19*
X121814000Y-160186000D03*
D18*
X121814000Y-162686000D03*
X121814000Y-165186000D03*
D11*
X121814000Y-154186000D03*
D12*
X121814000Y-146566000D03*
D13*
X60955000Y-63500000D03*
D14*
X63495000Y-63500000D03*
D19*
X69814000Y-160186000D03*
D18*
X69814000Y-162686000D03*
X69814000Y-165186000D03*
D11*
X83814000Y-154186000D03*
D12*
X83814000Y-146566000D03*
D11*
X69814000Y-154186000D03*
D12*
X69814000Y-146566000D03*
D11*
X67945000Y-77216000D03*
D12*
X67945000Y-69596000D03*
D19*
X100814000Y-160186000D03*
D18*
X100814000Y-162686000D03*
X100814000Y-165186000D03*
D10*
X76504800Y-113396000D03*
X76504800Y-115936000D03*
X76504800Y-118476000D03*
X76504800Y-121016000D03*
X76504800Y-123556000D03*
X76504800Y-126096000D03*
X76504800Y-128636000D03*
X84124800Y-128636000D03*
X84124800Y-126096000D03*
X84124800Y-123556000D03*
X84124800Y-121016000D03*
X84124800Y-118476000D03*
X84124800Y-115936000D03*
X84124800Y-113396000D03*
M02*
