%FSLAX45Y45*%
G04 Gerber Fmt 4.5, Leading zero omitted, Abs format (unit mm)*
G04 Created by KiCad (PCBNEW (6.0.4-0)) date 2022-06-01 22:21:27*
%MOMM*%
%LPD*%
G01*
G04 APERTURE LIST*
%TA.AperFunction,Profile*%
%ADD10C,0.025400*%
%TD*%
%ADD11C,0.200000*%
G04 APERTURE END LIST*
D10*
X13000000Y-17000000D02*
X13000000Y-5500000D01*
X13000000Y-5500000D02*
X4000000Y-5500000D01*
X4000000Y-17000000D02*
X13000000Y-17000000D01*
X4000000Y-5500000D02*
X4000000Y-17000000D01*
D11*
X4256349Y-17311746D02*
X4256349Y-17111746D01*
X4303968Y-17111746D01*
X4332540Y-17121270D01*
X4351587Y-17140318D01*
X4361111Y-17159365D01*
X4370635Y-17197460D01*
X4370635Y-17226032D01*
X4361111Y-17264127D01*
X4351587Y-17283175D01*
X4332540Y-17302222D01*
X4303968Y-17311746D01*
X4256349Y-17311746D01*
X4456349Y-17311746D02*
X4456349Y-17178413D01*
X4456349Y-17216508D02*
X4465873Y-17197460D01*
X4475397Y-17187937D01*
X4494444Y-17178413D01*
X4513492Y-17178413D01*
X4580159Y-17311746D02*
X4580159Y-17178413D01*
X4580159Y-17111746D02*
X4570635Y-17121270D01*
X4580159Y-17130794D01*
X4589682Y-17121270D01*
X4580159Y-17111746D01*
X4580159Y-17130794D01*
X4703968Y-17311746D02*
X4684920Y-17302222D01*
X4675397Y-17283175D01*
X4675397Y-17111746D01*
X4808730Y-17311746D02*
X4789682Y-17302222D01*
X4780159Y-17283175D01*
X4780159Y-17111746D01*
X5037301Y-17311746D02*
X5037301Y-17111746D01*
X5103968Y-17254603D01*
X5170635Y-17111746D01*
X5170635Y-17311746D01*
X5351587Y-17311746D02*
X5351587Y-17206984D01*
X5342063Y-17187937D01*
X5323016Y-17178413D01*
X5284920Y-17178413D01*
X5265873Y-17187937D01*
X5351587Y-17302222D02*
X5332540Y-17311746D01*
X5284920Y-17311746D01*
X5265873Y-17302222D01*
X5256349Y-17283175D01*
X5256349Y-17264127D01*
X5265873Y-17245080D01*
X5284920Y-17235556D01*
X5332540Y-17235556D01*
X5351587Y-17226032D01*
X5446825Y-17178413D02*
X5446825Y-17378413D01*
X5446825Y-17187937D02*
X5465873Y-17178413D01*
X5503968Y-17178413D01*
X5523016Y-17187937D01*
X5532540Y-17197460D01*
X5542063Y-17216508D01*
X5542063Y-17273651D01*
X5532540Y-17292699D01*
X5523016Y-17302222D01*
X5503968Y-17311746D01*
X5465873Y-17311746D01*
X5446825Y-17302222D01*
X5627778Y-17292699D02*
X5637301Y-17302222D01*
X5627778Y-17311746D01*
X5618254Y-17302222D01*
X5627778Y-17292699D01*
X5627778Y-17311746D01*
X5627778Y-17187937D02*
X5637301Y-17197460D01*
X5627778Y-17206984D01*
X5618254Y-17197460D01*
X5627778Y-17187937D01*
X5627778Y-17206984D01*
M02*
